<?xml version="1.0" encoding="UTF-8" ?>
<svg version="1.1" width="64" height="64" xmlns="http://www.w3.org/2000/svg" shape-rendering="crispEdges">
<rect x="32" y="12" width="1" height="1" fill="#000000" />
<rect x="32" y="13" width="1" height="1" fill="#000000" />
<rect x="32" y="14" width="1" height="1" fill="#000000" />
<rect x="32" y="15" width="1" height="1" fill="#000000" />
<rect x="33" y="15" width="1" height="1" fill="#000000" />
<rect x="33" y="16" width="1" height="1" fill="#000000" />
<rect x="34" y="16" width="1" height="1" fill="#000000" />
<rect x="35" y="16" width="1" height="1" fill="#000000" />
<rect x="36" y="16" width="1" height="1" fill="#000000" />
<rect x="37" y="17" width="1" height="1" fill="#000000" />
<rect x="38" y="18" width="1" height="1" fill="#000000" />
<rect x="38" y="19" width="1" height="1" fill="#000000" />
<rect x="38" y="20" width="1" height="1" fill="#000000" />
<rect x="29" y="21" width="1" height="1" fill="#000000" />
<rect x="30" y="21" width="1" height="1" fill="#000000" />
<rect x="31" y="21" width="1" height="1" fill="#000000" />
<rect x="32" y="21" width="1" height="1" fill="#000000" />
<rect x="33" y="21" width="1" height="1" fill="#000000" />
<rect x="34" y="21" width="1" height="1" fill="#000000" />
<rect x="35" y="21" width="1" height="1" fill="#000000" />
<rect x="36" y="21" width="1" height="1" fill="#000000" />
<rect x="37" y="21" width="1" height="1" fill="#000000" />
<rect x="28" y="22" width="1" height="1" fill="#000000" />
<rect x="27" y="23" width="1" height="1" fill="#000000" />
<rect x="27" y="24" width="1" height="1" fill="#000000" />
<rect x="27" y="25" width="1" height="1" fill="#000000" />
<rect x="28" y="26" width="1" height="1" fill="#000000" />
<rect x="29" y="27" width="1" height="1" fill="#000000" />
<rect x="30" y="27" width="1" height="1" fill="#000000" />
<rect x="31" y="28" width="1" height="1" fill="#000000" />
<rect x="32" y="29" width="1" height="1" fill="#000000" />
<rect x="32" y="30" width="1" height="1" fill="#000000" />
<rect x="32" y="31" width="1" height="1" fill="#000000" />
<rect x="32" y="32" width="1" height="1" fill="#000000" />
<rect x="30" y="33" width="1" height="1" fill="#000000" />
<rect x="31" y="33" width="1" height="1" fill="#000000" />
<rect x="32" y="33" width="1" height="1" fill="#000000" />
<rect x="33" y="33" width="1" height="1" fill="#000000" />
<rect x="27" y="34" width="1" height="1" fill="#000000" />
<rect x="28" y="34" width="1" height="1" fill="#000000" />
<rect x="29" y="34" width="1" height="1" fill="#000000" />
<rect x="32" y="34" width="1" height="1" fill="#000000" />
<rect x="34" y="34" width="1" height="1" fill="#000000" />
<rect x="35" y="34" width="1" height="1" fill="#000000" />
<rect x="36" y="34" width="1" height="1" fill="#000000" />
<rect x="26" y="35" width="1" height="1" fill="#000000" />
<rect x="32" y="35" width="1" height="1" fill="#000000" />
<rect x="37" y="35" width="1" height="1" fill="#000000" />
<rect x="26" y="36" width="1" height="1" fill="#000000" />
<rect x="32" y="36" width="1" height="1" fill="#000000" />
<rect x="38" y="36" width="1" height="1" fill="#000000" />
<rect x="26" y="37" width="1" height="1" fill="#000000" />
<rect x="32" y="37" width="1" height="1" fill="#000000" />
<rect x="38" y="37" width="1" height="1" fill="#000000" />
<rect x="26" y="38" width="1" height="1" fill="#000000" />
<rect x="32" y="38" width="1" height="1" fill="#000000" />
<rect x="38" y="38" width="1" height="1" fill="#000000" />
<rect x="26" y="39" width="1" height="1" fill="#000000" />
<rect x="32" y="39" width="1" height="1" fill="#000000" />
<rect x="38" y="39" width="1" height="1" fill="#000000" />
<rect x="26" y="40" width="1" height="1" fill="#000000" />
<rect x="27" y="40" width="1" height="1" fill="#000000" />
<rect x="28" y="40" width="1" height="1" fill="#000000" />
<rect x="29" y="40" width="1" height="1" fill="#000000" />
<rect x="30" y="40" width="1" height="1" fill="#000000" />
<rect x="31" y="40" width="1" height="1" fill="#000000" />
<rect x="32" y="40" width="1" height="1" fill="#000000" />
<rect x="33" y="40" width="1" height="1" fill="#000000" />
<rect x="34" y="40" width="1" height="1" fill="#000000" />
<rect x="35" y="40" width="1" height="1" fill="#000000" />
<rect x="36" y="40" width="1" height="1" fill="#000000" />
<rect x="37" y="40" width="1" height="1" fill="#000000" />
<rect x="38" y="40" width="1" height="1" fill="#000000" />
<rect x="26" y="41" width="1" height="1" fill="#000000" />
<rect x="38" y="41" width="1" height="1" fill="#000000" />
<rect x="26" y="42" width="1" height="1" fill="#000000" />
<rect x="38" y="42" width="1" height="1" fill="#000000" />
<rect x="26" y="43" width="1" height="1" fill="#000000" />
<rect x="38" y="43" width="1" height="1" fill="#000000" />
<rect x="26" y="44" width="1" height="1" fill="#000000" />
<rect x="38" y="44" width="1" height="1" fill="#000000" />
<rect x="26" y="45" width="1" height="1" fill="#000000" />
<rect x="38" y="45" width="1" height="1" fill="#000000" />
<rect x="26" y="46" width="1" height="1" fill="#000000" />
<rect x="38" y="46" width="1" height="1" fill="#000000" />
<rect x="26" y="47" width="1" height="1" fill="#000000" />
<rect x="38" y="47" width="1" height="1" fill="#000000" />
<rect x="26" y="48" width="1" height="1" fill="#000000" />
<rect x="38" y="48" width="1" height="1" fill="#000000" />
<rect x="27" y="49" width="1" height="1" fill="#000000" />
<rect x="37" y="49" width="1" height="1" fill="#000000" />
<rect x="28" y="50" width="1" height="1" fill="#000000" />
<rect x="29" y="50" width="1" height="1" fill="#000000" />
<rect x="35" y="50" width="1" height="1" fill="#000000" />
<rect x="36" y="50" width="1" height="1" fill="#000000" />
<rect x="30" y="51" width="1" height="1" fill="#000000" />
<rect x="31" y="51" width="1" height="1" fill="#000000" />
<rect x="32" y="51" width="1" height="1" fill="#000000" />
<rect x="33" y="51" width="1" height="1" fill="#000000" />
<rect x="34" y="51" width="1" height="1" fill="#000000" />
</svg>